<mxfile host="Electron" agent="Mozilla/5.0 (X11; Linux x86_64) AppleWebKit/537.36 (KHTML, like Gecko) draw.io/28.0.6 Chrome/138.0.7204.100 Electron/37.2.3 Safari/537.36" version="28.0.6">
  <diagram name="Horse Havoc UML" id="aRKbby7SROd2yB4IrQTj">
    <mxGraphModel dx="818" dy="658" grid="1" gridSize="10" guides="0" tooltips="1" connect="1" arrows="1" fold="1" page="1" pageScale="1" pageWidth="827" pageHeight="1169" background="none" math="0" shadow="0">
      <root>
        <mxCell id="0" />
        <mxCell id="1" parent="0" />
        <mxCell id="jnWjdJIEOlPgS7PcyJGl-19" value="GamerRunner" style="swimlane;fontStyle=1;align=center;verticalAlign=top;childLayout=stackLayout;horizontal=1;startSize=26;horizontalStack=0;resizeParent=1;resizeParentMax=0;resizeLast=0;collapsible=1;marginBottom=0;whiteSpace=wrap;html=1;" vertex="1" parent="1">
          <mxGeometry x="340" y="30" width="170" height="170" as="geometry" />
        </mxCell>
        <mxCell id="jnWjdJIEOlPgS7PcyJGl-20" value="&amp;nbsp;- player: Player&amp;nbsp;&amp;nbsp;&lt;div&gt;- map: Map&lt;/div&gt;&lt;div&gt;- timer: Timer&amp;nbsp; &amp;nbsp;&amp;nbsp;&lt;/div&gt;&lt;div&gt;&lt;span style=&quot;background-color: transparent; color: light-dark(rgb(0, 0, 0), rgb(255, 255, 255));&quot;&gt;- controller: PlayerController&amp;nbsp;&lt;/span&gt;&lt;/div&gt;" style="text;strokeColor=none;fillColor=none;align=left;verticalAlign=top;spacingLeft=4;spacingRight=4;overflow=hidden;rotatable=0;points=[[0,0.5],[1,0.5]];portConstraint=eastwest;whiteSpace=wrap;html=1;" vertex="1" parent="jnWjdJIEOlPgS7PcyJGl-19">
          <mxGeometry y="26" width="170" height="64" as="geometry" />
        </mxCell>
        <mxCell id="jnWjdJIEOlPgS7PcyJGl-21" value="" style="line;strokeWidth=1;fillColor=none;align=left;verticalAlign=middle;spacingTop=-1;spacingLeft=3;spacingRight=3;rotatable=0;labelPosition=right;points=[];portConstraint=eastwest;strokeColor=inherit;" vertex="1" parent="jnWjdJIEOlPgS7PcyJGl-19">
          <mxGeometry y="90" width="170" height="8" as="geometry" />
        </mxCell>
        <mxCell id="jnWjdJIEOlPgS7PcyJGl-22" value="&amp;nbsp;+ startGame(): void&amp;nbsp;&lt;div&gt;&amp;nbsp;+ updateFrame(): void&lt;/div&gt;&lt;div&gt;+ checkWinCondition(): void&lt;/div&gt;&lt;div&gt;&amp;nbsp;+ checkCollision(): void&amp;nbsp; &amp;nbsp;&lt;/div&gt;" style="text;strokeColor=none;fillColor=none;align=left;verticalAlign=top;spacingLeft=4;spacingRight=4;overflow=hidden;rotatable=0;points=[[0,0.5],[1,0.5]];portConstraint=eastwest;whiteSpace=wrap;html=1;" vertex="1" parent="jnWjdJIEOlPgS7PcyJGl-19">
          <mxGeometry y="98" width="170" height="72" as="geometry" />
        </mxCell>
        <mxCell id="jnWjdJIEOlPgS7PcyJGl-23" value="" style="endArrow=block;dashed=1;endFill=0;endSize=12;html=1;rounded=0;exitX=0.48;exitY=1.014;exitDx=0;exitDy=0;exitPerimeter=0;entryX=0.54;entryY=-0.01;entryDx=0;entryDy=0;entryPerimeter=0;" edge="1" parent="1" source="jnWjdJIEOlPgS7PcyJGl-22" target="jnWjdJIEOlPgS7PcyJGl-25">
          <mxGeometry width="160" relative="1" as="geometry">
            <mxPoint x="340" y="180" as="sourcePoint" />
            <mxPoint x="550" y="260" as="targetPoint" />
          </mxGeometry>
        </mxCell>
        <mxCell id="jnWjdJIEOlPgS7PcyJGl-24" value="" style="endArrow=block;dashed=1;endFill=0;endSize=12;html=1;rounded=0;exitX=0.478;exitY=1.005;exitDx=0;exitDy=0;exitPerimeter=0;entryX=0.484;entryY=0.002;entryDx=0;entryDy=0;entryPerimeter=0;" edge="1" parent="1" source="jnWjdJIEOlPgS7PcyJGl-22" target="jnWjdJIEOlPgS7PcyJGl-29">
          <mxGeometry width="160" relative="1" as="geometry">
            <mxPoint x="490" y="230" as="sourcePoint" />
            <mxPoint x="330" y="260" as="targetPoint" />
          </mxGeometry>
        </mxCell>
        <mxCell id="jnWjdJIEOlPgS7PcyJGl-25" value="Timer" style="swimlane;fontStyle=1;align=center;verticalAlign=top;childLayout=stackLayout;horizontal=1;startSize=26;horizontalStack=0;resizeParent=1;resizeParentMax=0;resizeLast=0;collapsible=1;marginBottom=0;whiteSpace=wrap;html=1;" vertex="1" parent="1">
          <mxGeometry x="470" y="280" width="150" height="120" as="geometry" />
        </mxCell>
        <mxCell id="jnWjdJIEOlPgS7PcyJGl-26" value="&amp;nbsp;- time: int&amp;nbsp;&amp;nbsp;" style="text;strokeColor=none;fillColor=none;align=left;verticalAlign=top;spacingLeft=4;spacingRight=4;overflow=hidden;rotatable=0;points=[[0,0.5],[1,0.5]];portConstraint=eastwest;whiteSpace=wrap;html=1;" vertex="1" parent="jnWjdJIEOlPgS7PcyJGl-25">
          <mxGeometry y="26" width="150" height="26" as="geometry" />
        </mxCell>
        <mxCell id="jnWjdJIEOlPgS7PcyJGl-27" value="" style="line;strokeWidth=1;fillColor=none;align=left;verticalAlign=middle;spacingTop=-1;spacingLeft=3;spacingRight=3;rotatable=0;labelPosition=right;points=[];portConstraint=eastwest;strokeColor=inherit;" vertex="1" parent="jnWjdJIEOlPgS7PcyJGl-25">
          <mxGeometry y="52" width="150" height="8" as="geometry" />
        </mxCell>
        <mxCell id="jnWjdJIEOlPgS7PcyJGl-28" value="&amp;nbsp;+ start(): void&amp;nbsp;&lt;div&gt;&amp;nbsp;+ stop(): void&amp;nbsp;&amp;nbsp;&lt;/div&gt;&lt;div&gt;+ reset(): void&amp;nbsp;&lt;/div&gt;" style="text;strokeColor=none;fillColor=none;align=left;verticalAlign=top;spacingLeft=4;spacingRight=4;overflow=hidden;rotatable=0;points=[[0,0.5],[1,0.5]];portConstraint=eastwest;whiteSpace=wrap;html=1;" vertex="1" parent="jnWjdJIEOlPgS7PcyJGl-25">
          <mxGeometry y="60" width="150" height="60" as="geometry" />
        </mxCell>
        <mxCell id="jnWjdJIEOlPgS7PcyJGl-29" value="Map" style="swimlane;fontStyle=1;align=center;verticalAlign=top;childLayout=stackLayout;horizontal=1;startSize=26;horizontalStack=0;resizeParent=1;resizeParentMax=0;resizeLast=0;collapsible=1;marginBottom=0;whiteSpace=wrap;html=1;" vertex="1" parent="1">
          <mxGeometry x="230" y="280" width="160" height="110" as="geometry" />
        </mxCell>
        <mxCell id="jnWjdJIEOlPgS7PcyJGl-30" value="- filePath: String&lt;div&gt;- mapData: [][]&amp;nbsp;&lt;/div&gt;" style="text;strokeColor=none;fillColor=none;align=left;verticalAlign=top;spacingLeft=4;spacingRight=4;overflow=hidden;rotatable=0;points=[[0,0.5],[1,0.5]];portConstraint=eastwest;whiteSpace=wrap;html=1;" vertex="1" parent="jnWjdJIEOlPgS7PcyJGl-29">
          <mxGeometry y="26" width="160" height="34" as="geometry" />
        </mxCell>
        <mxCell id="jnWjdJIEOlPgS7PcyJGl-31" value="" style="line;strokeWidth=1;fillColor=none;align=left;verticalAlign=middle;spacingTop=-1;spacingLeft=3;spacingRight=3;rotatable=0;labelPosition=right;points=[];portConstraint=eastwest;strokeColor=inherit;" vertex="1" parent="jnWjdJIEOlPgS7PcyJGl-29">
          <mxGeometry y="60" width="160" height="8" as="geometry" />
        </mxCell>
        <mxCell id="jnWjdJIEOlPgS7PcyJGl-32" value="+ loadMap(): void&lt;div&gt;+ getObjects(): List&amp;lt;Sprite&amp;gt;&lt;/div&gt;&lt;div&gt;&lt;br&gt;&lt;/div&gt;" style="text;strokeColor=none;fillColor=none;align=left;verticalAlign=top;spacingLeft=4;spacingRight=4;overflow=hidden;rotatable=0;points=[[0,0.5],[1,0.5]];portConstraint=eastwest;whiteSpace=wrap;html=1;" vertex="1" parent="jnWjdJIEOlPgS7PcyJGl-29">
          <mxGeometry y="68" width="160" height="42" as="geometry" />
        </mxCell>
        <mxCell id="jnWjdJIEOlPgS7PcyJGl-33" value="" style="endArrow=block;dashed=1;endFill=0;endSize=12;html=1;rounded=0;exitX=0.424;exitY=1.018;exitDx=0;exitDy=0;exitPerimeter=0;entryX=0.5;entryY=0;entryDx=0;entryDy=0;" edge="1" parent="1" source="jnWjdJIEOlPgS7PcyJGl-32" target="jnWjdJIEOlPgS7PcyJGl-34">
          <mxGeometry width="160" relative="1" as="geometry">
            <mxPoint x="230" y="480" as="sourcePoint" />
            <mxPoint x="298" y="420" as="targetPoint" />
          </mxGeometry>
        </mxCell>
        <mxCell id="jnWjdJIEOlPgS7PcyJGl-34" value="«interface»&lt;br&gt;&lt;div&gt;GameInterface&lt;/div&gt;" style="html=1;whiteSpace=wrap;" vertex="1" parent="1">
          <mxGeometry x="240" y="420" width="110" height="50" as="geometry" />
        </mxCell>
        <mxCell id="jnWjdJIEOlPgS7PcyJGl-35" value="Use" style="endArrow=open;endSize=12;dashed=1;html=1;rounded=0;entryX=0.545;entryY=1;entryDx=0;entryDy=0;entryPerimeter=0;exitX=0.443;exitY=-0.01;exitDx=0;exitDy=0;exitPerimeter=0;" edge="1" parent="1" source="jnWjdJIEOlPgS7PcyJGl-36" target="jnWjdJIEOlPgS7PcyJGl-34">
          <mxGeometry width="160" relative="1" as="geometry">
            <mxPoint x="300" y="540" as="sourcePoint" />
            <mxPoint x="390" y="450" as="targetPoint" />
          </mxGeometry>
        </mxCell>
        <mxCell id="jnWjdJIEOlPgS7PcyJGl-36" value="Sprite" style="swimlane;fontStyle=1;align=center;verticalAlign=top;childLayout=stackLayout;horizontal=1;startSize=26;horizontalStack=0;resizeParent=1;resizeParentMax=0;resizeLast=0;collapsible=1;marginBottom=0;whiteSpace=wrap;html=1;" vertex="1" parent="1">
          <mxGeometry x="230" y="540" width="160" height="140" as="geometry" />
        </mxCell>
        <mxCell id="jnWjdJIEOlPgS7PcyJGl-37" value="&lt;div&gt;- x: int&amp;nbsp; &amp;nbsp; &amp;nbsp; &amp;nbsp; &amp;nbsp; &amp;nbsp; &amp;nbsp; &amp;nbsp; &amp;nbsp; &amp;nbsp; &amp;nbsp; &amp;nbsp; &amp;nbsp; &amp;nbsp; &amp;nbsp; &amp;nbsp; &amp;nbsp;&lt;/div&gt;&lt;div&gt;- y: int&amp;nbsp; &amp;nbsp; &amp;nbsp; &amp;nbsp; &amp;nbsp; &amp;nbsp; &amp;nbsp; &amp;nbsp; &amp;nbsp; &amp;nbsp; &amp;nbsp; &amp;nbsp; &amp;nbsp; &amp;nbsp; &amp;nbsp; &amp;nbsp; &amp;nbsp;&amp;nbsp;&lt;/div&gt;&lt;div&gt;-&lt;span style=&quot;background-color: transparent; color: light-dark(rgb(0, 0, 0), rgb(255, 255, 255));&quot;&gt;&amp;nbsp;width: int&amp;nbsp; &amp;nbsp; &amp;nbsp; &amp;nbsp; &amp;nbsp; &amp;nbsp; &amp;nbsp; &amp;nbsp; &amp;nbsp; &amp;nbsp; &amp;nbsp; &amp;nbsp; &amp;nbsp; &amp;nbsp;&lt;/span&gt;&lt;/div&gt;&lt;div&gt;&lt;span style=&quot;background-color: transparent; color: light-dark(rgb(0, 0, 0), rgb(255, 255, 255));&quot;&gt;- height: int&lt;/span&gt;&lt;/div&gt;" style="text;strokeColor=none;fillColor=none;align=left;verticalAlign=top;spacingLeft=4;spacingRight=4;overflow=hidden;rotatable=0;points=[[0,0.5],[1,0.5]];portConstraint=eastwest;whiteSpace=wrap;html=1;" vertex="1" parent="jnWjdJIEOlPgS7PcyJGl-36">
          <mxGeometry y="26" width="160" height="64" as="geometry" />
        </mxCell>
        <mxCell id="jnWjdJIEOlPgS7PcyJGl-38" value="" style="line;strokeWidth=1;fillColor=none;align=left;verticalAlign=middle;spacingTop=-1;spacingLeft=3;spacingRight=3;rotatable=0;labelPosition=right;points=[];portConstraint=eastwest;strokeColor=inherit;" vertex="1" parent="jnWjdJIEOlPgS7PcyJGl-36">
          <mxGeometry y="90" width="160" height="8" as="geometry" />
        </mxCell>
        <mxCell id="jnWjdJIEOlPgS7PcyJGl-39" value="&lt;div&gt;+ drawSelf(): void&amp;nbsp; &amp;nbsp; &amp;nbsp; &amp;nbsp; &amp;nbsp; &amp;nbsp; &amp;nbsp; &amp;nbsp;&amp;nbsp;&lt;/div&gt;&lt;div&gt;+ move(): void&lt;/div&gt;" style="text;strokeColor=none;fillColor=none;align=left;verticalAlign=top;spacingLeft=4;spacingRight=4;overflow=hidden;rotatable=0;points=[[0,0.5],[1,0.5]];portConstraint=eastwest;whiteSpace=wrap;html=1;" vertex="1" parent="jnWjdJIEOlPgS7PcyJGl-36">
          <mxGeometry y="98" width="160" height="42" as="geometry" />
        </mxCell>
        <mxCell id="jnWjdJIEOlPgS7PcyJGl-40" value="" style="endArrow=block;dashed=1;endFill=0;endSize=12;html=1;rounded=0;exitX=0.486;exitY=1.039;exitDx=0;exitDy=0;exitPerimeter=0;" edge="1" parent="1" source="jnWjdJIEOlPgS7PcyJGl-39" target="jnWjdJIEOlPgS7PcyJGl-43">
          <mxGeometry width="160" relative="1" as="geometry">
            <mxPoint x="220" y="720" as="sourcePoint" />
            <mxPoint x="240" y="750" as="targetPoint" />
          </mxGeometry>
        </mxCell>
        <mxCell id="jnWjdJIEOlPgS7PcyJGl-42" value="" style="endArrow=block;dashed=1;endFill=0;endSize=12;html=1;rounded=0;exitX=0.495;exitY=1.002;exitDx=0;exitDy=0;exitPerimeter=0;entryX=0.467;entryY=0.019;entryDx=0;entryDy=0;entryPerimeter=0;" edge="1" parent="1" source="jnWjdJIEOlPgS7PcyJGl-39" target="jnWjdJIEOlPgS7PcyJGl-48">
          <mxGeometry width="160" relative="1" as="geometry">
            <mxPoint x="220" y="720" as="sourcePoint" />
            <mxPoint x="360" y="740" as="targetPoint" />
          </mxGeometry>
        </mxCell>
        <mxCell id="jnWjdJIEOlPgS7PcyJGl-43" value="Non-Moving Sprite" style="swimlane;fontStyle=0;childLayout=stackLayout;horizontal=1;startSize=26;fillColor=none;horizontalStack=0;resizeParent=1;resizeParentMax=0;resizeLast=0;collapsible=1;marginBottom=0;whiteSpace=wrap;html=1;" vertex="1" parent="1">
          <mxGeometry x="140" y="750" width="140" height="52" as="geometry" />
        </mxCell>
        <mxCell id="jnWjdJIEOlPgS7PcyJGl-44" value="+ collisionEffect()" style="text;strokeColor=none;fillColor=none;align=left;verticalAlign=top;spacingLeft=4;spacingRight=4;overflow=hidden;rotatable=0;points=[[0,0.5],[1,0.5]];portConstraint=eastwest;whiteSpace=wrap;html=1;" vertex="1" parent="jnWjdJIEOlPgS7PcyJGl-43">
          <mxGeometry y="26" width="140" height="26" as="geometry" />
        </mxCell>
        <mxCell id="jnWjdJIEOlPgS7PcyJGl-48" value="Horses" style="swimlane;fontStyle=1;align=center;verticalAlign=top;childLayout=stackLayout;horizontal=1;startSize=26;horizontalStack=0;resizeParent=1;resizeParentMax=0;resizeLast=0;collapsible=1;marginBottom=0;whiteSpace=wrap;html=1;" vertex="1" parent="1">
          <mxGeometry x="310" y="750" width="160" height="104" as="geometry" />
        </mxCell>
        <mxCell id="jnWjdJIEOlPgS7PcyJGl-49" value="- speed: int&amp;nbsp; &amp;nbsp;&lt;div&gt;&amp;nbsp;- jumpLevel: int&amp;nbsp;&amp;nbsp;&lt;/div&gt;" style="text;strokeColor=none;fillColor=none;align=left;verticalAlign=top;spacingLeft=4;spacingRight=4;overflow=hidden;rotatable=0;points=[[0,0.5],[1,0.5]];portConstraint=eastwest;whiteSpace=wrap;html=1;" vertex="1" parent="jnWjdJIEOlPgS7PcyJGl-48">
          <mxGeometry y="26" width="160" height="44" as="geometry" />
        </mxCell>
        <mxCell id="jnWjdJIEOlPgS7PcyJGl-50" value="" style="line;strokeWidth=1;fillColor=none;align=left;verticalAlign=middle;spacingTop=-1;spacingLeft=3;spacingRight=3;rotatable=0;labelPosition=right;points=[];portConstraint=eastwest;strokeColor=inherit;" vertex="1" parent="jnWjdJIEOlPgS7PcyJGl-48">
          <mxGeometry y="70" width="160" height="8" as="geometry" />
        </mxCell>
        <mxCell id="jnWjdJIEOlPgS7PcyJGl-51" value="+ animate(): void&amp;nbsp; &amp;nbsp;&amp;nbsp;" style="text;strokeColor=none;fillColor=none;align=left;verticalAlign=top;spacingLeft=4;spacingRight=4;overflow=hidden;rotatable=0;points=[[0,0.5],[1,0.5]];portConstraint=eastwest;whiteSpace=wrap;html=1;" vertex="1" parent="jnWjdJIEOlPgS7PcyJGl-48">
          <mxGeometry y="78" width="160" height="26" as="geometry" />
        </mxCell>
        <mxCell id="jnWjdJIEOlPgS7PcyJGl-52" value="" style="endArrow=block;dashed=1;endFill=0;endSize=12;html=1;rounded=0;exitX=0.536;exitY=1.005;exitDx=0;exitDy=0;exitPerimeter=0;entryX=0.464;entryY=-0.023;entryDx=0;entryDy=0;entryPerimeter=0;" edge="1" parent="1" source="jnWjdJIEOlPgS7PcyJGl-51" target="jnWjdJIEOlPgS7PcyJGl-53">
          <mxGeometry width="160" relative="1" as="geometry">
            <mxPoint x="150" y="780" as="sourcePoint" />
            <mxPoint x="396" y="920" as="targetPoint" />
          </mxGeometry>
        </mxCell>
        <mxCell id="jnWjdJIEOlPgS7PcyJGl-53" value="Player" style="swimlane;fontStyle=1;align=center;verticalAlign=top;childLayout=stackLayout;horizontal=1;startSize=26;horizontalStack=0;resizeParent=1;resizeParentMax=0;resizeLast=0;collapsible=1;marginBottom=0;whiteSpace=wrap;html=1;" vertex="1" parent="1">
          <mxGeometry x="320" y="930" width="160" height="120" as="geometry" />
        </mxCell>
        <mxCell id="jnWjdJIEOlPgS7PcyJGl-54" value="&lt;div&gt;- gamesPlayed: int&lt;/div&gt;&lt;div&gt;- gamesWon: int&amp;nbsp;&lt;/div&gt;" style="text;strokeColor=none;fillColor=none;align=left;verticalAlign=top;spacingLeft=4;spacingRight=4;overflow=hidden;rotatable=0;points=[[0,0.5],[1,0.5]];portConstraint=eastwest;whiteSpace=wrap;html=1;" vertex="1" parent="jnWjdJIEOlPgS7PcyJGl-53">
          <mxGeometry y="26" width="160" height="44" as="geometry" />
        </mxCell>
        <mxCell id="jnWjdJIEOlPgS7PcyJGl-55" value="" style="line;strokeWidth=1;fillColor=none;align=left;verticalAlign=middle;spacingTop=-1;spacingLeft=3;spacingRight=3;rotatable=0;labelPosition=right;points=[];portConstraint=eastwest;strokeColor=inherit;" vertex="1" parent="jnWjdJIEOlPgS7PcyJGl-53">
          <mxGeometry y="70" width="160" height="8" as="geometry" />
        </mxCell>
        <mxCell id="jnWjdJIEOlPgS7PcyJGl-56" value="&lt;div&gt;+ jump(): void&amp;nbsp;&amp;nbsp;&lt;/div&gt;&lt;div&gt;&lt;span style=&quot;background-color: transparent; color: light-dark(rgb(0, 0, 0), rgb(255, 255, 255));&quot;&gt;+ takeDamage():void&lt;/span&gt;&lt;/div&gt;" style="text;strokeColor=none;fillColor=none;align=left;verticalAlign=top;spacingLeft=4;spacingRight=4;overflow=hidden;rotatable=0;points=[[0,0.5],[1,0.5]];portConstraint=eastwest;whiteSpace=wrap;html=1;" vertex="1" parent="jnWjdJIEOlPgS7PcyJGl-53">
          <mxGeometry y="78" width="160" height="42" as="geometry" />
        </mxCell>
        <mxCell id="jnWjdJIEOlPgS7PcyJGl-57" value="PlayerControler" style="swimlane;fontStyle=0;childLayout=stackLayout;horizontal=1;startSize=26;fillColor=none;horizontalStack=0;resizeParent=1;resizeParentMax=0;resizeLast=0;collapsible=1;marginBottom=0;whiteSpace=wrap;html=1;" vertex="1" parent="1">
          <mxGeometry x="320" y="1080" width="140" height="70" as="geometry" />
        </mxCell>
        <mxCell id="jnWjdJIEOlPgS7PcyJGl-60" value="&lt;div&gt;+ handleInput(): void&amp;nbsp; &amp;nbsp;&amp;nbsp;&lt;/div&gt;&lt;div&gt;&lt;span style=&quot;background-color: transparent; color: light-dark(rgb(0, 0, 0), rgb(255, 255, 255));&quot;&gt;+ update(): void&lt;/span&gt;&lt;/div&gt;" style="text;strokeColor=none;fillColor=none;align=left;verticalAlign=top;spacingLeft=4;spacingRight=4;overflow=hidden;rotatable=0;points=[[0,0.5],[1,0.5]];portConstraint=eastwest;whiteSpace=wrap;html=1;" vertex="1" parent="jnWjdJIEOlPgS7PcyJGl-57">
          <mxGeometry y="26" width="140" height="44" as="geometry" />
        </mxCell>
        <mxCell id="jnWjdJIEOlPgS7PcyJGl-62" value="" style="endArrow=block;dashed=1;endFill=0;endSize=12;html=1;rounded=0;exitX=0.44;exitY=0.996;exitDx=0;exitDy=0;exitPerimeter=0;" edge="1" parent="1" source="jnWjdJIEOlPgS7PcyJGl-56" target="jnWjdJIEOlPgS7PcyJGl-57">
          <mxGeometry width="160" relative="1" as="geometry">
            <mxPoint x="280" y="1060" as="sourcePoint" />
            <mxPoint x="440" y="1060" as="targetPoint" />
          </mxGeometry>
        </mxCell>
      </root>
    </mxGraphModel>
  </diagram>
</mxfile>
